<svg xmlns="http://www.w3.org/2000/svg" width="21.011" height="12.803" viewBox="0 0 21.011 12.803">
  <g id="Icon_ionic-ios-menu" data-name="Icon ionic-ios-menu" transform="translate(-0.5 -11.125)">
    <g id="Group_3307" data-name="Group 3307" transform="translate(0.5 11.125)">
      <path id="Path_11486" data-name="Path 11486" d="M24.636,12.868H5.375c-.482,0-.875-.617-.875-1.372h0c0-.754.394-1.372.875-1.372h19.26c.482,0,.875.617.875,1.372h0C25.511,12.251,25.117,12.868,24.636,12.868Z" transform="translate(-4.5 -10.125)" fill="#2e3645"/>
      <path id="Path_11487" data-name="Path 11487" d="M24.636,19.618H5.375c-.482,0-.875-.617-.875-1.372h0c0-.754.394-1.372.875-1.372h19.26c.482,0,.875.617.875,1.372h0C25.511,19,25.117,19.618,24.636,19.618Z" transform="translate(-4.5 -11.845)" fill="#2e3645"/>
      <path id="Path_11488" data-name="Path 11488" d="M24.636,26.368H5.375c-.482,0-.875-.617-.875-1.372h0c0-.754.394-1.372.875-1.372h19.26c.482,0,.875.617.875,1.372h0C25.511,25.751,25.117,26.368,24.636,26.368Z" transform="translate(-4.5 -13.566)" fill="#2e3645"/>
    </g>
  </g>
</svg>
