<svg xmlns="http://www.w3.org/2000/svg" width="351.029" height="261.559" viewBox="0 0 351.029 261.559">
  <g id="Private_data-rafiki_1_" data-name="Private data-rafiki (1)" transform="translate(0 -55)">
    <g id="freepik--background-complete--inject-620" transform="translate(0 55)">
      <rect id="Rectangle_2583" data-name="Rectangle 2583" width="351.029" height="0.176" transform="translate(0 229.854)" fill="#ebebeb"/>
      <rect id="Rectangle_2584" data-name="Rectangle 2584" width="23.252" height="0.176" transform="translate(292.604 241.15)" fill="#ebebeb"/>
      <rect id="Rectangle_2585" data-name="Rectangle 2585" width="6.101" height="0.176" transform="translate(226.435 243.06)" fill="#ebebeb"/>
      <rect id="Rectangle_2586" data-name="Rectangle 2586" width="13.473" height="0.176" transform="translate(278.429 234.635)" fill="#ebebeb"/>
      <rect id="Rectangle_2587" data-name="Rectangle 2587" width="30.322" height="0.176" transform="translate(36.83 235.814)" fill="#ebebeb"/>
      <rect id="Rectangle_2588" data-name="Rectangle 2588" width="4.444" height="0.176" transform="translate(73.407 235.814)" fill="#ebebeb"/>
      <rect id="Rectangle_2589" data-name="Rectangle 2589" width="65.769" height="0.176" transform="translate(92.3 238.777)" fill="#ebebeb"/>
      <path id="Path_6918" data-name="Path 6918" d="M177.772,253.542H42.212a4.009,4.009,0,0,1-4-4.009V58.974a4.009,4.009,0,0,1,4-3.974h135.56a4.009,4.009,0,0,1,4.009,4.009V249.533A4.009,4.009,0,0,1,177.772,253.542ZM42.212,55.14a3.833,3.833,0,0,0-3.826,3.833v190.56a3.833,3.833,0,0,0,3.826,3.833H177.772a3.84,3.84,0,0,0,3.833-3.833V58.974a3.84,3.84,0,0,0-3.833-3.833Z" transform="translate(-11.384 -55)" fill="#ebebeb"/>
      <path id="Path_6919" data-name="Path 6919" d="M394.076,253.542H258.509a4.016,4.016,0,0,1-4.009-4.009V58.974A4.016,4.016,0,0,1,258.509,55H394.076a4.009,4.009,0,0,1,3.995,3.974v190.56A4.009,4.009,0,0,1,394.076,253.542ZM258.509,55.14a3.84,3.84,0,0,0-3.833,3.833v190.56a3.84,3.84,0,0,0,3.833,3.833H394.076a3.84,3.84,0,0,0,3.833-3.833V58.974a3.84,3.84,0,0,0-3.833-3.833Z" transform="translate(-75.826 -55)" fill="#ebebeb"/>
      <rect id="Rectangle_2590" data-name="Rectangle 2590" width="100.486" height="103.834" transform="translate(50.794 24.439)" fill="#ebebeb"/>
      <rect id="Rectangle_2591" data-name="Rectangle 2591" width="100.486" height="103.834" transform="translate(54.304 24.439)" fill="#f0f0f0"/>
      <rect id="Rectangle_2592" data-name="Rectangle 2592" width="95.29" height="98.955" transform="translate(56.839 26.903)" fill="#e0e0e0"/>
      <rect id="Rectangle_2593" data-name="Rectangle 2593" width="92.91" height="98.955" transform="translate(56.832 26.903)" fill="#f5f5f5"/>
      <rect id="Rectangle_2594" data-name="Rectangle 2594" width="1.889" height="98.955" transform="translate(102.367 26.903)" fill="#ebebeb"/>
      <path id="Path_6920" data-name="Path 6920" d="M118.013,93.32,91.531,192.275H88.99L115.472,93.32Z" transform="translate(-26.514 -66.417)" fill="#fff"/>
      <rect id="Rectangle_2595" data-name="Rectangle 2595" width="1.615" height="102.381" transform="translate(103.441 25.372)" fill="#f0f0f0"/>
      <path id="Path_6921" data-name="Path 6921" d="M106.006,93.32,80.95,186.968V135.493L92.232,93.32Z" transform="translate(-24.118 -66.417)" fill="#fff"/>
      <path id="Path_6922" data-name="Path 6922" d="M203.071,106.11v9.5l-21.539,80.477H178.99Z" transform="translate(-53.329 -70.228)" fill="#fff"/>
      <path id="Path_6923" data-name="Path 6923" d="M205.252,133.43V184.9l-5.167,19.321H186.31Z" transform="translate(-55.509 -78.368)" fill="#fff"/>
      <rect id="Rectangle_2596" data-name="Rectangle 2596" width="105.779" height="133.953" transform="translate(199.567 95.41)" fill="#f0f0f0"/>
      <rect id="Rectangle_2597" data-name="Rectangle 2597" width="98.302" height="28.644" transform="translate(203.309 100.289)" fill="#e0e0e0"/>
      <rect id="Rectangle_2598" data-name="Rectangle 2598" width="5.581" height="24.003" transform="translate(203.309 104.93)" fill="#ebebeb"/>
      <rect id="Rectangle_2599" data-name="Rectangle 2599" width="5.581" height="24.003" transform="translate(230.31 104.93)" fill="#ebebeb"/>
      <rect id="Rectangle_2600" data-name="Rectangle 2600" width="5.581" height="24.003" transform="matrix(0.985, -0.17, 0.17, 0.985, 261.057, 105.266)" fill="#ebebeb"/>
      <rect id="Rectangle_2601" data-name="Rectangle 2601" width="5.581" height="20.844" transform="translate(210.231 108.096)" fill="#ebebeb"/>
      <rect id="Rectangle_2602" data-name="Rectangle 2602" width="5.581" height="20.844" transform="translate(223.065 108.096)" fill="#ebebeb"/>
      <rect id="Rectangle_2603" data-name="Rectangle 2603" width="5.581" height="20.844" transform="translate(255.465 108.096)" fill="#ebebeb"/>
      <rect id="Rectangle_2604" data-name="Rectangle 2604" width="5.581" height="20.844" transform="translate(237.783 108.58) rotate(-12.53)" fill="#ebebeb"/>
      <rect id="Rectangle_2605" data-name="Rectangle 2605" width="2.794" height="25.197" transform="translate(217.849 103.736)" fill="#ebebeb"/>
      <rect id="Rectangle_2606" data-name="Rectangle 2606" width="2.794" height="25.197" transform="translate(251.063 103.736)" fill="#ebebeb"/>
      <rect id="Rectangle_2607" data-name="Rectangle 2607" width="98.302" height="28.644" transform="translate(301.611 162.119) rotate(180)" fill="#e0e0e0"/>
      <rect id="Rectangle_2608" data-name="Rectangle 2608" width="5.581" height="24.003" transform="translate(301.611 162.112) rotate(180)" fill="#ebebeb"/>
      <rect id="Rectangle_2609" data-name="Rectangle 2609" width="5.581" height="24.003" transform="translate(274.61 162.112) rotate(180)" fill="#ebebeb"/>
      <rect id="Rectangle_2610" data-name="Rectangle 2610" width="5.581" height="24.003" transform="matrix(-0.985, -0.17, 0.17, -0.985, 239.8, 162.111)" fill="#ebebeb"/>
      <rect id="Rectangle_2611" data-name="Rectangle 2611" width="5.581" height="20.844" transform="translate(294.696 162.112) rotate(180)" fill="#ebebeb"/>
      <rect id="Rectangle_2612" data-name="Rectangle 2612" width="5.581" height="20.844" transform="translate(281.855 162.112) rotate(180)" fill="#ebebeb"/>
      <rect id="Rectangle_2613" data-name="Rectangle 2613" width="5.581" height="20.844" transform="translate(249.463 162.112) rotate(180)" fill="#ebebeb"/>
      <rect id="Rectangle_2614" data-name="Rectangle 2614" width="5.581" height="20.844" transform="translate(262.639 162.108) rotate(-167.47)" fill="#ebebeb"/>
      <rect id="Rectangle_2615" data-name="Rectangle 2615" width="2.794" height="25.197" transform="translate(287.079 162.119) rotate(180)" fill="#ebebeb"/>
      <rect id="Rectangle_2616" data-name="Rectangle 2616" width="2.794" height="25.197" transform="translate(253.857 162.119) rotate(180)" fill="#ebebeb"/>
      <rect id="Rectangle_2617" data-name="Rectangle 2617" width="5.581" height="24.003" transform="translate(203.309 138.109)" fill="#ebebeb"/>
      <rect id="Rectangle_2618" data-name="Rectangle 2618" width="5.581" height="20.844" transform="translate(210.231 141.275)" fill="#ebebeb"/>
      <rect id="Rectangle_2619" data-name="Rectangle 2619" width="5.581" height="20.844" transform="translate(223.065 141.275)" fill="#ebebeb"/>
      <rect id="Rectangle_2620" data-name="Rectangle 2620" width="2.794" height="25.197" transform="translate(217.849 136.915)" fill="#ebebeb"/>
      <rect id="Rectangle_2621" data-name="Rectangle 2621" width="98.302" height="28.644" transform="translate(203.309 166.648)" fill="#e0e0e0"/>
      <rect id="Rectangle_2622" data-name="Rectangle 2622" width="5.581" height="24.003" transform="translate(259.734 171.288)" fill="#ebebeb"/>
      <rect id="Rectangle_2623" data-name="Rectangle 2623" width="5.581" height="24.003" transform="matrix(0.985, -0.17, 0.17, 0.985, 290.471, 171.624)" fill="#ebebeb"/>
      <rect id="Rectangle_2624" data-name="Rectangle 2624" width="5.581" height="20.844" transform="translate(239.648 174.455)" fill="#ebebeb"/>
      <rect id="Rectangle_2625" data-name="Rectangle 2625" width="5.581" height="20.844" transform="translate(252.488 174.455)" fill="#ebebeb"/>
      <rect id="Rectangle_2626" data-name="Rectangle 2626" width="5.581" height="20.844" transform="translate(284.881 174.455)" fill="#ebebeb"/>
      <rect id="Rectangle_2627" data-name="Rectangle 2627" width="5.581" height="20.844" transform="translate(267.204 174.935) rotate(-12.53)" fill="#ebebeb"/>
      <rect id="Rectangle_2628" data-name="Rectangle 2628" width="2.794" height="25.197" transform="translate(247.272 170.095)" fill="#ebebeb"/>
      <rect id="Rectangle_2629" data-name="Rectangle 2629" width="2.794" height="25.197" transform="translate(280.486 170.095)" fill="#ebebeb"/>
      <rect id="Rectangle_2630" data-name="Rectangle 2630" width="5.581" height="24.003" transform="matrix(0.985, -0.17, 0.17, 0.985, 226.225, 171.627)" fill="#ebebeb"/>
      <rect id="Rectangle_2631" data-name="Rectangle 2631" width="5.581" height="20.844" transform="translate(220.636 174.455)" fill="#ebebeb"/>
      <rect id="Rectangle_2632" data-name="Rectangle 2632" width="5.581" height="20.844" transform="translate(202.959 174.938) rotate(-12.53)" fill="#ebebeb"/>
      <rect id="Rectangle_2633" data-name="Rectangle 2633" width="2.794" height="25.197" transform="translate(216.241 170.095)" fill="#ebebeb"/>
      <path id="Path_6924" data-name="Path 6924" d="M307.4,182.045v-1.987h3.229a37.714,37.714,0,0,1-1.187-18.878s-.042,8.242,3.138,8.3c4.872.091,5.237-8.3,5.237-8.3s1.172,12.005-3.194,18.878h3.335v1.987Z" transform="translate(-91.587 -86.635)" fill="#e0e0e0"/>
      <path id="Path_6925" data-name="Path 6925" d="M317.906,167.808A2.808,2.808,0,1,1,315.1,165,2.808,2.808,0,0,1,317.906,167.808Z" transform="translate(-93.044 -87.774)" fill="#e0e0e0"/>
      <path id="Path_6926" data-name="Path 6926" d="M338.17,182.516v-1.158l3.391-1.58-1.7-1.657,4.212-14.954V172.5s-.583,0-.583,1.341,1.931,1.032,1.931-.077-.632-1.264-.632-1.264V162.76l3.875,14.8-1.713,2.219,3.51,1.587v1.158Z" transform="translate(-100.755 -87.106)" fill="#e0e0e0"/>
      <path id="Path_6927" data-name="Path 6927" d="M367.85,182.784v-.92l3.138-.716V167.423l2.689-3.763,2.3,2.949v6.3l1.186-1.65,1.664-.632,1.186,2.6-2.534,7.926,2.534.716v.92Z" transform="translate(-109.598 -87.374)" fill="#e0e0e0"/>
      <path id="Path_6928" data-name="Path 6928" d="M397.5,183.205l3.847-19.545h11.781l-2.794,11.085,4.128,8.039Z" transform="translate(-118.432 -87.374)" fill="#e0e0e0"/>
    </g>
    <g id="freepik--Shadow--inject-620" transform="translate(39.393 300.664)">
      <ellipse id="freepik--path--inject-620" cx="136.122" cy="7.947" rx="136.122" ry="7.947" fill="#f5f5f5"/>
    </g>
    <g id="freepik--Plant--inject-620" transform="translate(243.263 258.734)">
      <path id="Path_6929" data-name="Path 6929" d="M366.788,381.063c.084-.6,2.106-14.575-1.945-19.4a4.388,4.388,0,0,0-3.37-1.657c-8.193-.2-9.316,6.389-9.323,6.452l.962.147c.042-.232,1.011-5.8,8.333-5.616a3.419,3.419,0,0,1,2.647,1.313c3.777,4.486,1.748,18.478,1.727,18.619Z" transform="translate(-348.183 -349.608)" fill="#9676ff"/>
      <path id="Path_6930" data-name="Path 6930" d="M373.657,381.752h.976c0-.133-.323-12.883,5.96-15.515a6.765,6.765,0,0,1,9.043,2.949l.871-.435a7.786,7.786,0,0,0-10.292-3.412C373.313,368.2,373.643,381.2,373.657,381.752Z" transform="translate(-354.59 -350.964)" fill="#9676ff"/>
      <path id="Path_6931" data-name="Path 6931" d="M373.206,377.4c0-.2.063-20.36,3.995-26.271,3.77-5.659,9.864-3,10.117-2.878l.407-.892c-.07,0-7.1-3.131-11.338,3.229-4.1,6.143-4.156,25.976-4.156,26.812Z" transform="translate(-354.166 -345.612)" fill="#9676ff"/>
      <path id="Path_6932" data-name="Path 6932" d="M358.589,359.427s3.573,1.313,2.513,4.43-12.377,8.235-12.377,8.235-4.739-4.339-.386-11.4S358.491,357.195,358.589,359.427Z" transform="translate(-346.5 -348.571)" fill="#9676ff"/>
      <path id="Path_6933" data-name="Path 6933" d="M378.563,349.657s-2.541-.274-2.338-1.818,9.871-5.532,15.579.906c0,0-3.651,6.276-8.93,6.361S378.563,349.657,378.563,349.657Z" transform="translate(-355.353 -345.196)" fill="#9676ff"/>
      <path id="Path_6934" data-name="Path 6934" d="M382.754,365.271s-1.755-1.4.14-2.106,11.17-.5,11.233,8.7c0,0-10.812,1.8-12.146-1.706S382.754,365.271,382.754,365.271Z" transform="translate(-356.94 -350.476)" fill="#9676ff"/>
      <path id="Path_6935" data-name="Path 6935" d="M358.589,359.427s3.573,1.313,2.513,4.43-12.377,8.235-12.377,8.235-4.739-4.339-.386-11.4S358.491,357.195,358.589,359.427Z" transform="translate(-346.5 -348.571)" opacity="0.2"/>
      <path id="Path_6936" data-name="Path 6936" d="M378.563,349.657s-2.541-.274-2.338-1.818,9.871-5.532,15.579.906c0,0-3.651,6.276-8.93,6.361S378.563,349.657,378.563,349.657Z" transform="translate(-355.353 -345.196)" opacity="0.2"/>
      <path id="Path_6937" data-name="Path 6937" d="M382.754,365.271s-1.755-1.4.14-2.106,11.17-.5,11.233,8.7c0,0-10.812,1.8-12.146-1.706S382.754,365.271,382.754,365.271Z" transform="translate(-356.94 -350.476)" opacity="0.2"/>
      <path id="Path_6938" data-name="Path 6938" d="M360.211,408.839h16.772l1.811-18.359H358.4Z" transform="translate(-350.046 -358.688)" fill="#263238"/>
      <path id="Path_6939" data-name="Path 6939" d="M360.211,408.839h16.772l1.811-18.359H358.4Z" transform="translate(-350.046 -358.688)" fill="#fff" opacity="0.5"/>
      <rect id="Rectangle_2634" data-name="Rectangle 2634" width="22.185" height="4.051" transform="translate(29.641 33.814) rotate(180)" fill="#263238"/>
      <rect id="Rectangle_2635" data-name="Rectangle 2635" width="22.185" height="4.051" transform="translate(29.641 33.814) rotate(180)" fill="#fff" opacity="0.2"/>
    </g>
    <g id="freepik--Documents--inject-620" transform="translate(235.869 199.217)">
      <path id="Path_6940" data-name="Path 6940" d="M343.184,299.657a22.669,22.669,0,1,0,2.008-33.839l-8.144-4.367,4.367,8.144a22.677,22.677,0,0,0,1.769,30.062Z" transform="translate(-336.141 -260.581)" fill="#9676ff"/>
      <path id="Path_6941" data-name="Path 6941" d="M343.184,299.657a22.669,22.669,0,1,0,2.008-33.839l-8.144-4.367,4.367,8.144a22.677,22.677,0,0,0,1.769,30.062Z" transform="translate(-336.141 -260.581)" fill="#fff" opacity="0.7"/>
      <path id="Path_6942" data-name="Path 6942" d="M363.465,276.047,352.78,284.43v14.835a.7.7,0,0,0,.7.7H375.1a.7.7,0,0,0,.7-.7V284.43l-10.692-8.383A1.4,1.4,0,0,0,363.465,276.047Z" transform="translate(-340.977 -264.997)" fill="#37cd52"/>
      <rect id="Rectangle_2636" data-name="Rectangle 2636" width="15.831" height="21.476" transform="translate(15.412 8.895)" fill="#fff"/>
      <path id="Path_6943" data-name="Path 6943" d="M364.322,297.157,352.78,288.1v14.835a.7.7,0,0,0,.7.7H375.1a.7.7,0,0,0,.7-.7V288.1Z" transform="translate(-340.977 -268.667)" fill="#9676ff"/>
      <path id="Path_6944" data-name="Path 6944" d="M364.322,297.157,352.78,288.1v14.835a.7.7,0,0,0,.7.7H375.1a.7.7,0,0,0,.7-.7V288.1Z" transform="translate(-340.977 -268.667)" fill="#37cd52" opacity="0.5"/>
      <rect id="Rectangle_2637" data-name="Rectangle 2637" width="10.833" height="0.702" transform="translate(17.911 11.254)" fill="#9676ff"/>
      <rect id="Rectangle_2638" data-name="Rectangle 2638" width="10.833" height="0.702" transform="translate(17.911 13.262)" fill="#9676ff"/>
      <rect id="Rectangle_2639" data-name="Rectangle 2639" width="10.833" height="0.702" transform="translate(17.911 15.277)" fill="#9676ff"/>
      <rect id="Rectangle_2640" data-name="Rectangle 2640" width="10.833" height="0.702" transform="translate(17.911 17.292)" fill="#9676ff"/>
      <rect id="Rectangle_2641" data-name="Rectangle 2641" width="10.833" height="0.702" transform="translate(17.911 19.307)" fill="#9676ff"/>
      <rect id="Rectangle_2642" data-name="Rectangle 2642" width="6.62" height="0.702" transform="translate(17.911 21.321)" fill="#9676ff"/>
      <path id="Path_6945" data-name="Path 6945" d="M359.025,306.461a23.006,23.006,0,0,1-18.254-37.076l-4.254-7.94a.344.344,0,0,1,.063-.414.351.351,0,0,1,.414-.063l7.94,4.262a23.021,23.021,0,1,1,14.041,41.232ZM337.71,262.14l3.819,7.112a.351.351,0,0,1-.035.379,22.318,22.318,0,1,0,3.721-3.721.337.337,0,0,1-.386.035Z" transform="translate(-335.968 -260.42)" fill="#9676ff"/>
      <g id="Group_2436" data-name="Group 2436" opacity="0.7">
        <path id="Path_6946" data-name="Path 6946" d="M359.025,306.461a23.006,23.006,0,0,1-18.254-37.076l-4.254-7.94a.344.344,0,0,1,.063-.414.351.351,0,0,1,.414-.063l7.94,4.262a23.021,23.021,0,1,1,14.041,41.232ZM337.71,262.14l3.819,7.112a.351.351,0,0,1-.035.379,22.318,22.318,0,1,0,3.721-3.721.337.337,0,0,1-.386.035Z" transform="translate(-335.968 -260.42)" fill="#9676ff"/>
      </g>
    </g>
    <g id="freepik--Folder--inject-620" transform="translate(171.267 221.783)">
      <path id="Path_6947" data-name="Path 6947" d="M244.52,324.434a22.676,22.676,0,1,0,25.344-22.508l-2.675-8.846-2.668,8.846A22.677,22.677,0,0,0,244.52,324.434Z" transform="translate(-244.119 -292.717)" fill="#9676ff"/>
      <path id="Path_6948" data-name="Path 6948" d="M244.52,324.434a22.676,22.676,0,1,0,25.344-22.508l-2.675-8.846-2.668,8.846A22.677,22.677,0,0,0,244.52,324.434Z" transform="translate(-244.119 -292.717)" fill="#fff" opacity="0.7"/>
      <path id="Path_6949" data-name="Path 6949" d="M283.411,325.363h-2.9a.7.7,0,0,1-.66-.555l-.218-1.334a.7.7,0,0,0-.66-.555h-5.89a.7.7,0,0,0-.66.555l-.218,1.334a.7.7,0,0,1-.66.555h-8.783a1.264,1.264,0,0,0-1.264,1.264v14.82a1.257,1.257,0,0,0,1.264,1.257h20.648a1.264,1.264,0,0,0,1.264-1.257v-14.82A1.271,1.271,0,0,0,283.411,325.363Z" transform="translate(-249.178 -301.607)" fill="#37cd52"/>
      <rect id="Rectangle_2643" data-name="Rectangle 2643" width="20.886" height="14.82" transform="translate(13.501 25.019)" fill="#fff"/>
      <path id="Path_6950" data-name="Path 6950" d="M282.7,344.808H262.052a1.46,1.46,0,0,1-1.4-1.278l-1.523-13.072a1.109,1.109,0,0,1,1.109-1.278h20.655a1.474,1.474,0,0,1,1.4,1.278l1.516,13.051a1.116,1.116,0,0,1-1.109,1.3Z" transform="translate(-248.467 -303.473)" fill="#9676ff"/>
      <path id="Path_6951" data-name="Path 6951" d="M282.7,344.808H262.052a1.46,1.46,0,0,1-1.4-1.278l-1.523-13.072a1.109,1.109,0,0,1,1.109-1.278h20.655a1.474,1.474,0,0,1,1.4,1.278l1.516,13.051a1.116,1.116,0,0,1-1.109,1.3Z" transform="translate(-248.467 -303.473)" fill="#37cd52" opacity="0.999"/>
      <path id="Path_6952" data-name="Path 6952" d="M267.019,347.307a23.021,23.021,0,0,1-2.942-45.859l2.6-8.621a.365.365,0,0,1,.7,0l2.577,8.621a23.021,23.021,0,0,1-2.942,45.859Zm0-53.167-2.338,7.723a.351.351,0,0,1-.295.246,22.319,22.319,0,1,0,5.265,0,.358.358,0,0,1-.295-.246Z" transform="translate(-243.949 -292.563)" fill="#9676ff"/>
      <g id="Group_2437" data-name="Group 2437" transform="translate(0 0)" opacity="0.7">
        <path id="Path_6953" data-name="Path 6953" d="M267.019,347.307a23.021,23.021,0,0,1-2.942-45.859l2.6-8.621a.365.365,0,0,1,.7,0l2.577,8.621a23.021,23.021,0,0,1-2.942,45.859Zm0-53.167-2.338,7.723a.351.351,0,0,1-.295.246,22.319,22.319,0,1,0,5.265,0,.358.358,0,0,1-.295-.246Z" transform="translate(-243.949 -292.563)" fill="#9676ff"/>
      </g>
    </g>
    <g id="freepik--Map--inject-620" transform="translate(106.708 118.128)">
      <path id="Path_6954" data-name="Path 6954" d="M159.183,184.127a22.669,22.669,0,1,1,33.839-2l4.36,8.144-8.144-4.367A22.669,22.669,0,0,1,159.183,184.127Z" transform="translate(-152.157 -145.07)" fill="#9676ff"/>
      <path id="Path_6955" data-name="Path 6955" d="M159.183,184.127a22.669,22.669,0,1,1,33.839-2l4.36,8.144-8.144-4.367A22.669,22.669,0,0,1,159.183,184.127Z" transform="translate(-152.157 -145.07)" fill="#37cd52" opacity="0.7"/>
      <path id="Path_6956" data-name="Path 6956" d="M183.246,164.734l-7.659-1.664-7.666,1.664v20.072l7.666-1.664,7.659,1.664,7.659-1.664V163.07Z" transform="translate(-156.738 -150.326)" fill="#9676ff"/>
      <path id="Path_6957" data-name="Path 6957" d="M183.246,164.734l-7.659-1.664-7.666,1.664v20.072l7.666-1.664,7.659,1.664,7.659-1.664V163.07Z" transform="translate(-156.738 -150.326)" fill="#fff" opacity="0.4"/>
      <path id="Path_6958" data-name="Path 6958" d="M190.457,164.378V182.85l-6.88,1.5L178.2,183.18l-2.05-.442-.232-.056-6.887,1.5V165.705l2.1-.456,1.8-.386,2.991-.653,7.659,1.664,2.527-.548,2.675-.583Z" transform="translate(-157.069 -150.666)" fill="#2680eb"/>
      <path id="Path_6959" data-name="Path 6959" d="M190.457,173.844l-.611.176.611,2.113v3.573l-1.559-5.42-12.307,3.531,1.608,5.588-2.05-.442-1.334-4.634-5.785,1.657V178.07l5.272-1.509-1.425-4.992-3.847,1.109v-1.116l3.552-1.025-1.453-5.062,1.8-.386,3.152,10.959,6.5-1.867-1.158-4.03h.007l-.007-.014,4.683-4.584,2.675-.583-5.588,5.483.948,3.286,6.319-1.818Z" transform="translate(-157.069 -150.892)" fill="#fff" opacity="0.3"/>
      <path id="Path_6960" data-name="Path 6960" d="M178.84,163.07v20.072l7.659,1.664V164.734Z" transform="translate(-159.992 -150.326)" fill="#fff" opacity="0.2"/>
      <path id="Path_6961" data-name="Path 6961" d="M191.545,182.479a2.423,2.423,0,0,0-3.426,3.426l1.713,1.706,1.713-1.706a2.422,2.422,0,0,0,0-3.426Zm-1.046,2.38h0a.948.948,0,0,1-1.334,0h0a.943.943,0,1,1,1.334,0Z" transform="translate(-162.545 -155.898)" fill="#fff"/>
      <path id="Path_6962" data-name="Path 6962" d="M175.046,190.974a23.028,23.028,0,1,1,18.211-8.965l4.261,7.94a.358.358,0,0,1-.063.414.351.351,0,0,1-.414.063l-7.94-4.254a22.95,22.95,0,0,1-14.055,4.8Zm0-45.339a22.318,22.318,0,1,0,13.809,39.842.365.365,0,0,1,.386-.035l7.119,3.819-3.812-7.119a.351.351,0,0,1,0-.386A22.3,22.3,0,0,0,175,145.636Z" transform="translate(-151.993 -144.918)" fill="#9676ff"/>
    </g>
    <g id="freepik--Password--inject-620" transform="translate(110.757 159.417)">
      <rect id="Rectangle_2644" data-name="Rectangle 2644" width="1.755" height="0.702" transform="translate(61.564 35.152)" fill="#9676ff"/>
      <path id="Path_6963" data-name="Path 6963" d="M218.951,249.932h-3.51v-.7h3.51Zm-5.616,0h-3.51v-.7h3.51Zm-5.616,0h-3.51v-.7h3.51Zm-5.616,0h-3.51v-.7h3.51Zm-5.616,0h-3.51v-.7h3.51Zm-5.616,0h-3.51v-.7h3.51Zm-5.616,0h-3.51v-.7h3.51Zm-5.616,0h-3.51v-.7h3.51Zm-5.659-.576-2.38-2.478.5-.5,2.478,2.478Zm-3.96-3.967-2.478-2.471.5-.5,2.471,2.478Zm-3.967-3.96-2.471-2.478.491-.491,2.478,2.471Z" transform="translate(-159.494 -214.077)" fill="#9676ff"/>
      <rect id="Rectangle_2645" data-name="Rectangle 2645" width="0.702" height="1.755" transform="translate(1.448 22.154) rotate(-44.99)" fill="#9676ff"/>
      <path id="Path_6964" data-name="Path 6964" d="M159.01,235.009a1.25,1.25,0,1,1,1.25-1.243,1.25,1.25,0,0,1-1.25,1.243Zm0-1.79a.548.548,0,1,0,.548.548A.548.548,0,0,0,159.01,233.219Z" transform="translate(-157.76 -212.305)" fill="#9676ff"/>
      <rect id="Rectangle_2646" data-name="Rectangle 2646" width="44.995" height="44.925" rx="3.4" transform="translate(61.086 0)" fill="#37cd52"/>
      <rect id="Rectangle_2647" data-name="Rectangle 2647" width="33.916" height="8.116" rx="1.59" transform="translate(66.618 31.445)" fill="#fff" opacity="0.4"/>
      <path id="Path_6965" data-name="Path 6965" d="M259.079,253.615l.962.527-.33.576-.976-.576v1.088H258.1v-1.081l-.969.569-.337-.576.969-.527-.969-.534.337-.583.969.576V252h.639v1.088l.976-.583.33.583Z" transform="translate(-187.265 -218.112)" fill="#263238"/>
      <path id="Path_6966" data-name="Path 6966" d="M265.029,253.615l.962.527-.33.576-.976-.576v1.088h-.639v-1.081l-.969.569-.337-.576.969-.527-.969-.534.337-.583.969.576V252h.639v1.088l.976-.583.33.583Z" transform="translate(-189.038 -218.112)" fill="#263238"/>
      <path id="Path_6967" data-name="Path 6967" d="M270.879,253.615l.962.527-.33.576-.976-.576v1.088H269.9v-1.081l-.969.569-.337-.576.969-.527-.969-.534.337-.583.969.576V252h.639v1.088l.976-.583.33.583Z" transform="translate(-190.781 -218.112)" fill="#263238"/>
      <path id="Path_6968" data-name="Path 6968" d="M276.779,253.615l.955.527-.323.576-.976-.576v1.088H275.8v-1.081l-.969.569-.337-.576.969-.527-.969-.534.337-.583.969.576V252h.639v1.088l.976-.583.323.583Z" transform="translate(-192.539 -218.112)" fill="#263238"/>
      <path id="Path_6969" data-name="Path 6969" d="M282.673,253.612l.955.527-.323.576-.983-.576v1.088h-.646v-1.081l-.969.569-.337-.576.969-.527-.969-.534.337-.583.969.576V251.99h.646v1.088l.983-.583.323.583Z" transform="translate(-194.291 -218.109)" fill="#263238"/>
      <path id="Path_6970" data-name="Path 6970" d="M288.572,253.615l.962.527-.33.576-.976-.576v1.088h-.639v-1.081l-.962.569-.337-.576.962-.527-.962-.534.337-.583.962.576V252h.639v1.088l.976-.583.33.583Z" transform="translate(-196.054 -218.112)" fill="#263238"/>
      <path id="Path_6971" data-name="Path 6971" d="M294.469,253.615l.962.527-.33.576-.976-.576v1.088h-.639v-1.081l-.969.569-.337-.576.969-.527-.969-.534.337-.583.969.576V252h.674v1.088l.976-.583.33.583Z" transform="translate(-197.809 -218.112)" fill="#263238"/>
      <path id="Path_6972" data-name="Path 6972" d="M280.43,222.487h-1.4v-1.362a3.981,3.981,0,1,0-7.961,0v1.362h-1.4v-1.362a5.385,5.385,0,0,1,10.77,0Z" transform="translate(-191.1 -207.308)" fill="#fff"/>
      <path id="Path_6973" data-name="Path 6973" d="M280.437,226.4H268.193a1.053,1.053,0,0,0-1.053,1.053v7.252a1.053,1.053,0,0,0,1.053,1.046h12.244a1.053,1.053,0,0,0,1.053-1.046v-7.252a1.053,1.053,0,0,0-1.053-1.053Zm-5.673,4.739v2.3h-.857v-2.3a1.25,1.25,0,1,1,.856,0Z" transform="translate(-190.349 -210.484)" fill="#fff"/>
    </g>
    <g id="freepik--Character--inject-620" transform="translate(58.524 156.991)">
      <path id="Path_6974" data-name="Path 6974" d="M89.046,325.13h69.405a2.949,2.949,0,0,1,2.949,2.949v8.663H86.09v-8.663a2.949,2.949,0,0,1,2.956-2.949Z" transform="translate(-84.173 -237.474)" fill="#9676ff"/>
      <path id="Path_6975" data-name="Path 6975" d="M89.046,325.13h69.405a2.949,2.949,0,0,1,2.949,2.949v8.663H86.09v-8.663a2.949,2.949,0,0,1,2.956-2.949Z" transform="translate(-84.173 -237.474)" fill="#fff" opacity="0.6"/>
      <path id="Path_6976" data-name="Path 6976" d="M89.046,325.13H110.43a2.949,2.949,0,0,1,2.949,2.949v8.663H86.09v-8.663a2.949,2.949,0,0,1,2.956-2.949Z" transform="translate(-84.173 -237.474)" fill="#fff" opacity="0.6"/>
      <path id="Path_6977" data-name="Path 6977" d="M158.435,394.028H156.2l-1.5-53.258h3.735Z" transform="translate(-104.615 -242.134)" fill="#2e353a"/>
      <path id="Path_6978" data-name="Path 6978" d="M88.13,394.028H85.89V340.77h3.735Z" transform="translate(-84.114 -242.134)" fill="#2e353a"/>
      <path id="Path_6979" data-name="Path 6979" d="M120.46,394.028h-2.24V340.77h3.735Z" transform="translate(-93.746 -242.134)" fill="#2e353a"/>
      <path id="Path_6980" data-name="Path 6980" d="M190.765,394.028h-2.24l-1.5-53.258h3.735Z" transform="translate(-114.248 -242.134)" fill="#2e353a"/>
      <rect id="Rectangle_2648" data-name="Rectangle 2648" width="80.035" height="5.925" rx="1.45" transform="translate(0 98.636)" fill="#9676ff"/>
      <rect id="Rectangle_2649" data-name="Rectangle 2649" width="80.035" height="5.925" rx="1.45" transform="translate(0 98.636)" fill="#37cd53"/>
      <path id="Path_6981" data-name="Path 6981" d="M140.356,239.03a.14.14,0,0,1-.077,0,.176.176,0,0,1-.077-.239c1.4-2.808-.407-8.39-2.359-11.184a5.49,5.49,0,0,1-.435-5.525.183.183,0,0,1,.239-.07.176.176,0,0,1,.063.239,5.132,5.132,0,0,0,.421,5.153c2,2.871,3.875,8.649,2.38,11.549a.169.169,0,0,1-.154.077Z" transform="translate(-99.3 -206.745)" fill="#263238"/>
      <path id="Path_6982" data-name="Path 6982" d="M127.332,215.674s3.868-8.6-3.1-13.557c-5.616-4.009-14.582-1.566-17.727,8.172-2.928,9.028,1.664,9.3-3.335,13.824s-4.851,8.284-.344,14.638,14.3,8.158,19.728,3.693,6.066-15.944,3.665-20.669S127.332,215.674,127.332,215.674Z" transform="translate(-88.15 -200.274)" fill="#263238"/>
      <path id="Path_6983" data-name="Path 6983" d="M97.9,233.892a.176.176,0,0,1-.161-.1c-1.594-3.131,1.144-6.319,3.566-9.127a18.191,18.191,0,0,0,2.633-3.559,8.908,8.908,0,0,0,.337-4.4c-.211-2.808-.47-6.361,2.464-10.25a11.869,11.869,0,0,1,11.886-4.381.176.176,0,0,1,.126.211.183.183,0,0,1-.218.126c-.07,0-7.021-1.72-11.514,4.254-2.857,3.791-2.612,7.1-2.394,10.011a9.349,9.349,0,0,1-.365,4.584,18.2,18.2,0,0,1-2.7,3.63c-2.345,2.731-5.006,5.82-3.51,8.741a.182.182,0,0,1-.077.239Z" transform="translate(-87.503 -200.736)" fill="#263238"/>
      <path id="Path_6984" data-name="Path 6984" d="M139.4,242.385c1.839-.379,5.708,9.183,5.708,9.183l-.625-4.121,3.51-.576s3.7,13.044.372,13.859c-1.924.463-7.175-4.8-10.383-8.649Z" transform="translate(-99.634 -212.817)" fill="#ebb376"/>
      <path id="Path_6985" data-name="Path 6985" d="M139.4,242.385c1.839-.379,5.708,9.183,5.708,9.183l-.625-4.121,3.51-.576s3.7,13.044.372,13.859c-1.924.463-7.175-4.8-10.383-8.649Z" transform="translate(-99.634 -212.817)" opacity="0.1"/>
      <path id="Path_6986" data-name="Path 6986" d="M179.973,402.809l-3.988-.407-.1-5.617-.077-5.16,4.816-.295-.344,6.08Z" transform="translate(-110.905 -257.198)" fill="#ebb376"/>
      <path id="Path_6987" data-name="Path 6987" d="M174.54,406.7c-.049-.435,5.378-.842,5.378-.842s3.784,2.907,7.1,3.215,1.8,2.485-1.8,2.984L176.33,413.3C173.775,413.681,175.066,411.259,174.54,406.7Z" transform="translate(-110.526 -261.527)" fill="#2e353a"/>
      <path id="Path_6988" data-name="Path 6988" d="M185.191,406.266a8.008,8.008,0,0,1-2.036-.386.147.147,0,0,1-.07-.042h0a.183.183,0,0,1,0-.133c0-.056.295-1.4.99-1.8a.857.857,0,0,1,.7-.084c.344.105.428.295.435.428a1.325,1.325,0,0,1-.625.864,2.042,2.042,0,0,1,1.109,0,.625.625,0,0,1,.358.337.576.576,0,0,1-.056.625A1.074,1.074,0,0,1,185.191,406.266Zm-1.467-.576c.821.211,1.776.351,1.987.126.049-.049.042-.14,0-.26a.281.281,0,0,0-.169-.155,3.349,3.349,0,0,0-1.818.288Zm.744-1.594a.533.533,0,0,0-.267.077,2.31,2.31,0,0,0-.737,1.208c.7-.4,1.4-.906,1.4-1.123,0-.042-.077-.091-.2-.133A.767.767,0,0,0,184.468,404.1Z" transform="translate(-113.068 -260.908)" fill="#577afa"/>
      <path id="Path_6989" data-name="Path 6989" d="M180.265,397.541l-4.388-.639-.077-5.209,4.816-.323Z" transform="translate(-110.902 -257.209)" opacity="0.2"/>
      <path id="Path_6990" data-name="Path 6990" d="M174.266,313.371c-1.053-5.982-9.183-12.068-40.719-17.221L118.86,318.209s21.469-1,41.035-1c0,0-2.759,31.038-1.622,48.926l5.792.105S175.327,319.36,174.266,313.371Z" transform="translate(-93.937 -228.839)" fill="#2e353a"/>
      <path id="Path_6991" data-name="Path 6991" d="M174.266,313.371c-1.053-5.982-9.183-12.068-40.719-17.221L118.86,318.209s21.469-1,41.035-1c0,0-2.759,31.038-1.622,48.926l5.792.105S175.327,319.36,174.266,313.371Z" transform="translate(-93.937 -228.839)" opacity="0.3"/>
      <path id="Path_6992" data-name="Path 6992" d="M148.982,403.542l-3.882-1,.744-5.574.7-5.111,4.8.428-1.243,5.96Z" transform="translate(-101.755 -257.355)" fill="#ebb376"/>
      <path id="Path_6993" data-name="Path 6993" d="M143.322,406.727c0-.442,5.441,0,5.441,0s3.3,3.44,6.536,4.212,1.4,2.731-2.226,2.682l-8.979-.105C141.49,413.487,143.154,411.311,143.322,406.727Z" transform="translate(-101.023 -261.726)" fill="#2e353a"/>
      <path id="Path_6994" data-name="Path 6994" d="M154.438,407.72a6.776,6.776,0,0,1-2.275-.7l-.049-.035h0a.176.176,0,0,1,0-.049.162.162,0,0,1,0-.126c0-.049.5-1.327,1.25-1.629a.871.871,0,0,1,.7,0c.323.161.379.351.365.484,0,.274-.344.541-.744.758a2.029,2.029,0,0,1,1.1.169.583.583,0,0,1,.295.386.54.54,0,0,1-.147.6A.758.758,0,0,1,154.438,407.72Zm-1.706-.814c.779.33,1.706.618,1.945.421.049-.042.063-.126,0-.26a.281.281,0,0,0-.14-.176A3.44,3.44,0,0,0,152.732,406.906Zm.9-1.467a.526.526,0,0,0-.2.042,2.317,2.317,0,0,0-.906,1.081c.779-.288,1.516-.7,1.53-.906,0-.042-.063-.105-.176-.154a.534.534,0,0,0-.218-.063Z" transform="translate(-103.841 -261.302)" fill="#577afa"/>
      <path id="Path_6995" data-name="Path 6995" d="M150.367,398.392,146.12,397.1l.709-5.16,4.809.4Z" transform="translate(-102.059 -257.379)" opacity="0.2"/>
      <path id="Path_6996" data-name="Path 6996" d="M133.247,296.031s-1.165-1.7-3.854-10.531l-21.4,1.4s-9.773,18-2.211,25.688c1.678,1.706,4.964,2.471,8.326,2.443,0,0,7.723.035,26.791-.856,0,0-6.361,30.891-7.919,48.737l5.708.976s18.176-47.656,18.022-53.729S155.221,300.938,133.247,296.031Z" transform="translate(-89.186 -225.666)" fill="#2e353a"/>
      <path id="Path_6997" data-name="Path 6997" d="M144.544,393.31l7.849.892-1.516,3.075-6.347-.814Z" transform="translate(-101.585 -257.787)" fill="#9676ff"/>
      <path id="Path_6998" data-name="Path 6998" d="M173.46,393.445l7.884-.295-1.032,3.272-6.4.147Z" transform="translate(-110.205 -257.74)" fill="#9676ff"/>
      <path id="Path_6999" data-name="Path 6999" d="M128.6,288.538a1.081,1.081,0,1,0,.314-.769A1.088,1.088,0,0,0,128.6,288.538Z" transform="translate(-96.839 -226.247)" fill="#fff" opacity="0.6"/>
      <path id="Path_7000" data-name="Path 7000" d="M109.769,286.76l-.9,2.225,22.775-1.137-.477-2.738Z" transform="translate(-90.96 -225.55)" opacity="0.5"/>
      <path id="Path_7001" data-name="Path 7001" d="M127.278,285.953l.267,2.5a.5.5,0,0,0,.541.449l3.335-.26a.513.513,0,0,0,.47-.562l-.239-2.464a.505.505,0,0,0-.541-.456l-3.363.232a.5.5,0,0,0-.47.562Z" transform="translate(-96.444 -225.565)" fill="#fff"/>
      <path id="Path_7002" data-name="Path 7002" d="M118.858,286.71l-.267,2.942h-.821l.126-2.942Z" transform="translate(-93.612 -226.027)" fill="#263238"/>
      <path id="Path_7003" data-name="Path 7003" d="M136.41,285.383l.33,3.075h.765l-.267-3.208Z" transform="translate(-99.166 -225.592)" fill="#263238"/>
      <path id="Path_7004" data-name="Path 7004" d="M124.545,235.885a12.209,12.209,0,0,0,.2,4.732l-7.182-1.053c1.327-.871,1.755-6.045,2-8.158.112-1.018.154-1.952.161-2.6s0-.9,0-.9l2.626,1.2,4.283,1.959A14.1,14.1,0,0,0,124.545,235.885Z" transform="translate(-93.55 -208.508)" fill="#ebb376"/>
      <path id="Path_7005" data-name="Path 7005" d="M127.481,231.451a14.1,14.1,0,0,0-2.106,4.816,9.639,9.639,0,0,1-4.985-4.479c.112-1.018.154-1.952.161-2.6.934.091,1.8.19,2.633.3Z" transform="translate(-94.393 -208.889)" opacity="0.2"/>
      <path id="Path_7006" data-name="Path 7006" d="M126.064,207.571c5.722.639,7.224,3.91,7.021,9.829-.3,7.435-2.52,12.49-9.506,10.117C114.066,224.329,116.551,206.518,126.064,207.571Z" transform="translate(-93.551 -202.435)" fill="#ebb376"/>
      <path id="Path_7007" data-name="Path 7007" d="M134.326,220.59a12.356,12.356,0,0,0,1.4,2.563,1.58,1.58,0,0,1-1.58.477Z" transform="translate(-98.492 -206.327)" fill="#d58745"/>
      <path id="Path_7008" data-name="Path 7008" d="M129,218.985c-.042.47-.33.835-.639.807s-.541-.435-.5-.906.33-.835.646-.807S129.037,218.515,129,218.985Z" transform="translate(-96.616 -205.579)" fill="#263238"/>
      <path id="Path_7009" data-name="Path 7009" d="M128.59,217.966l1.06-.316S129.067,218.471,128.59,217.966Z" transform="translate(-96.836 -205.451)" fill="#263238"/>
      <path id="Path_7010" data-name="Path 7010" d="M137.365,219.618c-.042.47-.33.835-.646.807s-.534-.435-.491-.906.33-.828.639-.8S137.407,219.119,137.365,219.618Z" transform="translate(-99.11 -205.769)" fill="#263238"/>
      <path id="Path_7011" data-name="Path 7011" d="M137,218.559l1.067-.309S137.442,219.064,137,218.559Z" transform="translate(-99.342 -205.63)" fill="#263238"/>
      <path id="Path_7012" data-name="Path 7012" d="M126.241,214.429a.281.281,0,0,1-.183-.077.253.253,0,0,1,0-.358,3.194,3.194,0,0,1,2.808-.653.246.246,0,0,1,.19.3.26.26,0,0,1-.309.19,2.808,2.808,0,0,0-2.338.527A.26.26,0,0,1,126.241,214.429Z" transform="translate(-96.059 -204.14)" fill="#263238"/>
      <path id="Path_7013" data-name="Path 7013" d="M138.118,214.9a.246.246,0,0,1-.161-.063,2.429,2.429,0,0,0-2.008-.667.256.256,0,0,1-.119-.5,2.921,2.921,0,0,1,2.457.779.253.253,0,0,1,0,.358A.259.259,0,0,1,138.118,214.9Z" transform="translate(-98.936 -204.257)" fill="#263238"/>
      <path id="Path_7014" data-name="Path 7014" d="M118.164,215.517s3.2-4.409,3.2-8.081c0,0,11.865-3.377,11.142,8.207,0,0,2.247-10.11-7.575-11.43s-11.38,13.086-6.775,17.945C118.157,222.159,116.177,218.276,118.164,215.517Z" transform="translate(-92.988 -201.423)" fill="#263238"/>
      <path id="Path_7015" data-name="Path 7015" d="M118.617,221.118a2.534,2.534,0,0,0-2.45-2.6c-1.8,0-3.047,3.51,1.271,4.914C118.055,223.631,118.483,223.069,118.617,221.118Z" transform="translate(-92.64 -205.71)" fill="#ebb376"/>
      <path id="Path_7016" data-name="Path 7016" d="M117.118,213.083s2.022-8.53,9.766-8.039c6.831.428,6.564,6.319,6.564,6.319s.576-7.021-7.14-7.491c-8.242-.477-9.948,8.621-9.948,8.621Z" transform="translate(-93.192 -201.341)" fill="#9676ff"/>
      <path id="Path_7017" data-name="Path 7017" d="M131.719,227.686h-.049c-2.366-.442-2.675-2.106-2.682-2.169a.246.246,0,0,1,.211-.288.253.253,0,0,1,.288.2c0,.063.281,1.4,2.282,1.755a.246.246,0,0,1,.2.295.253.253,0,0,1-.246.2Z" transform="translate(-96.953 -207.708)" fill="#263238"/>
      <path id="Path_7018" data-name="Path 7018" d="M151.043,237.36s3.11.66,3.089,1.229-1.271,5.048-1.832,5.616a9.83,9.83,0,0,1-1.9,1.2l-.288,4.584-1.994.218L146.88,246a4.992,4.992,0,0,1-.372-4.507C147.6,239.27,151.043,237.36,151.043,237.36Z" transform="translate(-102.053 -211.323)" fill="#ebb376"/>
      <path id="Path_7019" data-name="Path 7019" d="M151.043,237.36s3.11.66,3.089,1.229-1.271,5.048-1.832,5.616a9.83,9.83,0,0,1-1.9,1.2l-.288,4.584-1.994.218L146.88,246a4.992,4.992,0,0,1-.372-4.507C147.6,239.27,151.043,237.36,151.043,237.36Z" transform="translate(-102.053 -211.323)" opacity="0.1"/>
      <path id="Path_7020" data-name="Path 7020" d="M144.351,236.618a.477.477,0,0,0,.4.611l5.357.807a.625.625,0,0,0,.7-.442l2.808-10.4a.534.534,0,0,0-.386-.7l-5.357-.814a.7.7,0,0,0-.7.52Z" transform="translate(-101.526 -207.843)" fill="#263238"/>
      <path id="Path_7021" data-name="Path 7021" d="M148,226.294l-2.808,10.531a.414.414,0,0,0,.344.569l4.542.7c.309.042.892-.042.969-.337l2.808-10.531c.077-.295-.4-.618-.7-.667l-4.542-.7a.562.562,0,0,0-.611.435Z" transform="translate(-101.772 -207.896)" fill="#fff" opacity="0.5"/>
      <path id="Path_7022" data-name="Path 7022" d="M129.2,272.48l-21.392,1.4s-.154-5.736-.9-11.036a37.6,37.6,0,0,0-1.1-5.448c-.555-1.825-1.25-3.875-2.106-6.255-.105-.295-.218-.59-.337-.9-.281-.737-.569-1.509-.892-2.317v-.035a3.166,3.166,0,0,1,2.3-4.212c1.362-.288,2.731-.548,4.121-.765l1.2-.183a82.388,82.388,0,0,1,9.674-.864c1.678,0,3.468.049,5,.119l1.271.063c1.622.1,2.745.2,2.745.2s.7.14,1.116,3.9c0,.183.042.393.063.611.056.779.1,1.762.119,2.942C130.121,254.556,129.861,262.658,129.2,272.48Z" transform="translate(-88.994 -212.667)" fill="#37cd52"/>
      <path id="Path_7023" data-name="Path 7023" d="M126.307,257.56a11.366,11.366,0,0,0,6.192,2.71s.33,6.887-4.992,10.573c0,0-5.406-1.594-7.287-9.127C120.22,261.7,124.98,260.031,126.307,257.56Z" transform="translate(-94.342 -217.342)" fill="#fff" opacity="0.4"/>
      <path id="Path_7024" data-name="Path 7024" d="M126.812,259c-1.4,1.769-4.163,3.026-5.392,3.51,1.615,5.617,5.244,7.491,6.319,7.933,3.8-2.843,4.325-7.561,4.388-9.183A12.518,12.518,0,0,1,126.812,259Zm.7,7.2a.379.379,0,0,1-.253.147h0a.344.344,0,0,1-.253-.091l-2.282-2.106a.351.351,0,0,1,.477-.513l1.987,1.846,2.029-2.85a.351.351,0,0,1,.569.4Z" transform="translate(-94.7 -217.771)" fill="#fff" opacity="0.4"/>
      <path id="Path_7025" data-name="Path 7025" d="M134.11,246.135l3.082-4.212s2.106-6.108,2.577-6.7,5.5.828,6.066.92-.99,6.319-1.678,6.845a7.339,7.339,0,0,1-2.885.576l-4.641,5.5Z" transform="translate(-98.481 -210.642)" fill="#ebb376"/>
      <path id="Path_7026" data-name="Path 7026" d="M101.913,245.4a4.079,4.079,0,0,1,5.932.849c3.377,4.844,7.681,9.443,8.362,9.829.983.569,3.145-1.032,9.716-9.646l3.51,2.106s-8.9,14.933-11.682,14.308c-5.4-1.208-12.82-6.319-16.632-11.935a4.079,4.079,0,0,1,.807-5.469Z" transform="translate(-88.44 -213.447)" fill="#ebb376"/>
      <path id="Path_7027" data-name="Path 7027" d="M128.784,242.033c0,2.752-.955,7.407-6.929,7.407-4.43,0-8.425-4.3-10.215-6.543l1.2-.183a82.388,82.388,0,0,1,9.674-.864c1.678,0,3.468.049,5,.119Z" transform="translate(-91.786 -212.661)" fill="#ebb376"/>
    </g>
  </g>
</svg>
